<?xml version="1.0" standalone="no"?>
<!DOCTYPE svg PUBLIC "-//W3C//DTD SVG 20010904//EN"
 "http://www.w3.org/TR/2001/REC-SVG-20010904/DTD/svg10.dtd">
<svg version="1.0" xmlns="http://www.w3.org/2000/svg"
 width="300.000000pt" height="337.000000pt" viewBox="0 0 300.000000 337.000000"
 preserveAspectRatio="xMidYMid meet">
<metadata>
Created by potrace 1.10, written by Peter Selinger 2001-2011
</metadata>
<g transform="translate(0.000000,337.000000) scale(0.100000,-0.100000)"
fill="#000000" stroke="none">
<path d="M2314 3320 c-40 -20 -158 -149 -217 -237 -16 -22 -52 -68 -80 -100
-157 -180 -305 -341 -409 -447 -65 -65 -118 -126 -118 -136 0 -10 -25 -103
-55 -208 -30 -105 -55 -197 -55 -205 0 -40 25 -37 186 18 172 59 290 104 314
120 8 6 35 36 58 67 24 31 92 113 150 181 59 68 150 175 202 238 52 62 150
172 216 245 67 72 128 142 135 155 7 13 13 51 12 84 0 101 -49 171 -158 221
-62 29 -127 31 -181 4z m172 -36 c31 -13 72 -49 109 -95 12 -15 20 -44 23 -79
5 -67 -11 -93 -139 -232 -75 -81 -145 -162 -323 -372 -22 -27 -48 -56 -56 -66
-8 -10 -37 -44 -65 -76 -56 -65 -105 -124 -151 -181 -33 -41 -38 -43 -302
-135 -84 -29 -148 -46 -153 -41 -5 5 7 62 30 138 21 72 44 153 51 180 7 28 14
58 17 69 3 10 46 59 97 110 90 89 156 159 287 307 36 41 92 103 124 139 32 36
81 99 111 140 71 101 167 197 207 208 36 10 88 5 133 -14z"/>
<path d="M2344 3236 c-28 -12 -94 -81 -94 -98 0 -25 168 -167 215 -181 42 -13
95 62 95 135 0 39 -6 54 -32 83 -35 41 -96 75 -130 75 -13 -1 -37 -7 -54 -14z
m89 -27 c46 -24 97 -82 97 -111 0 -23 -30 -99 -45 -116 -5 -6 -205 148 -205
158 0 4 17 22 38 38 56 44 78 50 115 31z"/>
<path d="M2152 2982 c-32 -31 -75 -77 -97 -102 -107 -120 -204 -229 -242 -270
-71 -78 -121 -145 -129 -174 -6 -25 0 -35 61 -92 98 -92 113 -90 217 34 117
140 301 357 307 362 21 18 93 112 102 133 14 32 4 48 -71 108 -82 67 -83 67
-148 1z m112 -17 c26 -24 57 -47 67 -50 20 -7 26 -30 10 -39 -5 -3 -55 -61
-112 -128 -57 -68 -153 -182 -214 -253 -60 -72 -122 -145 -138 -164 l-27 -33
-70 61 c-39 33 -71 63 -72 67 -1 8 107 135 232 274 80 88 199 222 259 293 9 9
16 17 16 17 1 0 23 -20 49 -45z"/>
<path d="M1581 2335 c-11 -14 -22 -40 -26 -58 -3 -18 -10 -43 -15 -57 -20 -59
-20 -90 -1 -109 19 -19 21 -19 89 -1 98 25 156 58 160 91 2 21 -6 35 -40 63
-48 41 -127 96 -139 96 -4 0 -17 -11 -28 -25z m168 -113 l35 -21 -30 -12 c-16
-6 -69 -24 -117 -39 -88 -28 -89 -28 -83 -7 4 12 16 61 28 109 l20 87 57 -48
c31 -27 71 -58 90 -69z"/>
<path d="M570 3160 c-113 -8 -178 -28 -263 -82 -62 -40 -147 -134 -186 -207
-64 -120 -61 -68 -61 -1246 0 -1189 -4 -1123 68 -1259 71 -137 228 -258 382
-296 69 -17 644 -22 1335 -12 l620 9 66 25 c104 39 158 75 244 162 87 88 134
170 154 264 8 37 11 380 11 1115 0 1174 3 1114 -65 1252 -18 39 -54 90 -79
114 l-45 44 -11 -44 c-7 -24 -19 -52 -28 -62 -11 -12 -13 -22 -7 -31 50 -67
70 -106 86 -163 18 -64 19 -124 19 -1119 0 -1026 0 -1052 -20 -1109 -27 -77
-69 -142 -134 -203 -110 -104 -177 -123 -463 -129 -206 -5 -250 -11 -207 -27
23 -9 350 -9 410 -1 60 9 126 29 180 56 98 49 205 174 246 287 21 56 21 69 20
1125 -1 1175 1 1139 -62 1238 -34 52 -37 71 -14 90 14 11 19 10 36 -11 25 -31
65 -109 86 -169 15 -41 16 -157 18 -1106 1 -613 -2 -1085 -7 -1119 -16 -96
-63 -181 -154 -272 -59 -61 -98 -91 -150 -116 -137 -66 -76 -63 -1115 -63
l-945 0 -64 23 c-169 61 -293 184 -353 352 l-23 65 0 1090 0 1090 24 65 c13
36 34 79 47 97 13 17 24 35 24 40 0 18 118 122 170 151 117 63 114 63 870 60
632 -3 685 -4 688 -20 2 -9 -6 -21 -16 -27 -14 -7 -243 -11 -695 -11 -732 -1
-743 -2 -830 -57 -109 -69 -174 -156 -211 -281 -23 -78 -18 -2117 6 -2203 41
-154 142 -272 285 -335 l88 -39 445 -5 c245 -3 533 -3 640 0 224 6 211 1 333
119 105 101 101 88 105 372 l4 246 -27 21 c-26 20 -39 22 -180 22 -197 0 -189
7 -193 -175 -3 -111 -6 -134 -19 -140 -32 -12 -38 13 -35 143 4 173 8 170
-186 176 -196 5 -189 11 -194 -174 -2 -110 -6 -143 -18 -150 -32 -20 -40 8
-40 145 0 182 8 174 -185 182 l-150 6 -27 -27 c-25 -26 -26 -30 -27 -159 -1
-103 -5 -135 -17 -147 -26 -26 -34 7 -34 151 0 174 5 169 -160 174 -128 5
-140 7 -140 31 0 11 23 14 124 14 117 0 124 1 150 25 26 24 26 25 26 173 0
149 0 150 -25 166 -19 13 -51 17 -133 18 -122 1 -161 10 -142 33 10 12 39 15
135 15 122 0 124 0 144 26 19 24 21 40 21 165 0 184 4 179 -164 179 -94 0
-126 3 -135 14 -7 8 -8 16 -4 19 4 3 66 8 138 11 170 8 164 2 165 192 0 182 5
176 -159 175 -126 -1 -151 3 -151 24 0 20 20 24 142 24 150 1 161 8 168 114 5
81 10 93 35 84 11 -5 15 -22 15 -75 0 -55 4 -75 21 -96 l20 -26 150 0 c146 0
151 1 174 25 22 21 25 33 25 95 0 55 3 72 16 77 26 10 39 -15 47 -95 9 -88 9
-104 1 -301 -3 -79 -3 -154 0 -167 11 -42 53 -54 190 -54 115 0 128 2 176 27
50 26 52 26 81 9 24 -14 62 -19 183 -23 204 -8 196 -14 196 175 l0 138 48 47
48 47 166 -1 c134 0 169 -3 179 -15 26 -31 -5 -37 -175 -35 -211 3 -199 12
-206 -177 -7 -191 -16 -183 201 -186 91 -2 171 -6 177 -10 6 -4 9 -13 5 -21
-4 -12 -35 -15 -172 -15 -222 0 -211 9 -211 -183 1 -111 4 -146 16 -162 14
-18 29 -20 185 -23 139 -3 171 -6 176 -18 3 -8 2 -18 -2 -22 -4 -4 -80 -7
-170 -7 -218 0 -205 12 -205 -195 0 -208 -17 -193 233 -198 106 -2 198 -5 205
-7 6 -3 12 -21 12 -41 0 -33 -9 -46 -88 -125 -96 -96 -256 -269 -397 -430
-106 -120 -144 -179 -116 -179 5 0 47 44 92 98 130 152 364 408 461 505 85 84
88 89 88 132 0 32 -6 51 -20 65 -19 19 -33 20 -230 20 l-210 0 0 160 0 160
180 0 c167 0 181 1 200 20 27 27 25 55 -7 80 -25 20 -36 21 -200 18 l-173 -3
0 150 0 150 179 -3 c170 -3 181 -2 200 17 26 26 27 63 3 84 -16 15 -45 17
-200 17 l-182 0 0 148 0 147 182 -3 c178 -3 183 -3 200 18 22 27 23 64 2 84
-13 13 -45 16 -182 17 -92 0 -176 4 -187 8 -16 7 -31 -4 -80 -53 l-59 -61 3
-154 3 -154 -114 6 c-62 4 -137 7 -165 7 -49 0 -53 2 -53 23 0 29 -9 40 -24
28 -6 -4 -32 -16 -58 -26 -28 -10 -48 -24 -48 -32 0 -10 -6 -13 -16 -9 -9 3
-78 6 -155 6 l-139 0 0 150 c0 83 4 150 9 150 4 0 11 23 14 52 5 41 3 54 -8
61 -11 6 -15 28 -15 91 0 91 -13 116 -62 116 -44 0 -58 -28 -58 -117 l0 -80
-31 -7 c-17 -3 -89 -6 -160 -6 l-129 0 0 88 c0 72 -3 92 -17 104 -30 25 -54
29 -79 13 -22 -14 -24 -22 -24 -104 l0 -88 -52 -7 c-29 -3 -97 -6 -150 -6 -96
0 -98 0 -112 -28 -12 -24 -12 -31 0 -55 l15 -27 149 0 150 0 0 -150 0 -150
-143 0 c-127 0 -146 -2 -160 -18 -24 -26 -21 -55 7 -81 23 -22 30 -23 159 -20
l135 4 -2 -154 -1 -154 -143 6 c-137 5 -143 4 -157 -16 -20 -29 -19 -60 3 -80
16 -14 43 -17 162 -17 l143 0 -7 -92 c-3 -50 -6 -120 -6 -155 l0 -63 -138 0
c-122 0 -141 -2 -155 -18 -23 -25 -21 -58 3 -82 18 -18 33 -20 161 -20 l142 0
-7 -149 -7 -148 27 -22 c33 -26 45 -26 78 0 l27 21 -3 149 -3 149 163 0 163 0
-3 -150 c-3 -168 3 -184 62 -182 57 1 60 9 60 178 l0 154 158 0 157 0 -3 -147
c-3 -141 -2 -149 19 -165 28 -24 64 -23 89 2 18 18 20 33 20 165 l0 145 161
-2 160 -3 0 -255 -1 -255 -98 -96 c-81 -79 -104 -97 -137 -102 -65 -11 -1156
-8 -1216 3 -80 15 -209 82 -256 133 -55 60 -93 128 -115 206 -17 62 -18 129
-18 1116 0 1143 -2 1088 57 1196 38 72 127 143 215 172 40 14 141 16 750 18
l705 1 33 54 c18 29 30 60 27 68 -5 12 -102 14 -654 14 -356 -1 -695 -4 -753
-8z"/>
<path d="M455 2885 c-38 -38 -27 -102 21 -124 73 -33 131 78 68 128 -35 27
-59 26 -89 -4z m73 -59 c-4 -30 -44 -34 -53 -5 -5 16 -2 26 10 36 23 16 47 -1
43 -31z"/>
<path d="M938 2898 c-29 -22 -38 -62 -22 -94 8 -16 21 -32 27 -36 22 -14 64
-8 82 12 23 25 25 84 4 105 -21 21 -71 29 -91 13z m66 -55 c7 -18 -10 -43 -30
-43 -18 0 -28 38 -14 55 13 16 36 10 44 -12z"/>
<path d="M697 2882 c-27 -30 -22 -87 9 -111 15 -12 35 -21 46 -21 29 0 68 45
68 78 0 59 -85 96 -123 54z m78 -52 c0 -18 -6 -26 -23 -28 -24 -4 -38 18 -28
44 3 9 15 14 28 12 17 -2 23 -10 23 -28z"/>
<path d="M812 2167 c-20 -21 -22 -33 -21 -155 0 -121 2 -134 22 -158 22 -25
25 -25 175 -27 200 -3 192 -11 192 188 0 183 9 175 -198 175 -142 0 -149 -1
-170 -23z m338 -159 l0 -148 -159 0 -160 0 -3 146 c-2 80 -2 147 0 148 1 2 74
2 162 2 l160 -1 0 -147z"/>
<path d="M1700 1763 c-24 -20 -25 -26 -28 -162 -3 -139 -3 -141 22 -166 25
-25 28 -25 181 -25 205 0 195 -9 195 183 -1 111 -4 146 -16 162 -13 18 -30 20
-172 25 -150 5 -158 4 -182 -17z m340 -171 l0 -153 -165 2 -165 1 0 155 0 155
165 -4 165 -3 0 -153z"/>
<path d="M811 1754 c-19 -24 -21 -40 -21 -159 0 -186 -7 -179 192 -183 201 -4
192 -12 196 180 3 134 3 141 -19 164 -22 23 -27 24 -175 24 l-153 0 -20 -26z
m335 -68 c-3 -32 -6 -101 -6 -153 l0 -95 -156 6 -156 5 -1 151 -2 150 164 -2
163 -3 -6 -59z"/>
<path d="M1254 1759 c-17 -19 -19 -35 -16 -163 2 -138 3 -141 28 -164 26 -23
32 -23 170 -20 189 4 179 -6 179 184 0 192 8 184 -195 184 -137 0 -148 -1
-166 -21z m328 -162 l3 -147 -157 0 -158 0 0 149 0 150 154 -2 155 -2 3 -148z"/>
<path d="M900 1362 c-49 -2 -70 -8 -87 -24 -22 -20 -23 -29 -23 -165 0 -194
-6 -188 194 -192 l146 -2 25 27 c24 26 25 31 25 172 0 178 -2 182 -116 182
-40 0 -78 1 -86 3 -7 2 -42 1 -78 -1z m247 -187 l-2 -155 -160 0 -160 0 0 155
0 155 162 0 163 0 -3 -155z"/>
<path d="M1349 1362 c-111 -4 -112 -5 -110 -189 1 -146 1 -148 27 -170 23 -22
34 -23 163 -23 135 0 138 0 162 26 23 24 24 34 27 163 4 133 3 139 -20 164
-20 23 -32 26 -98 29 -41 2 -109 2 -151 0z m237 -48 c-3 -9 -6 -78 -6 -155 l0
-139 -155 0 -155 0 0 155 0 155 161 0 c143 0 160 -2 155 -16z"/>
<path d="M1694 1339 c-17 -19 -19 -38 -19 -169 0 -200 -10 -190 195 -190 208
0 200 -8 200 191 0 201 12 189 -194 189 -153 0 -164 -1 -182 -21z m346 -168
l0 -159 -165 -1 -165 -2 0 161 0 160 165 0 165 0 0 -159z"/>
<path d="M2143 898 c-22 -23 -23 -32 -23 -179 1 -159 7 -189 43 -189 21 0 123
103 227 230 25 30 55 66 68 80 27 30 27 32 1 56 -18 16 -41 19 -157 22 -134 4
-137 3 -159 -20z m238 -97 c-42 -47 -91 -101 -109 -120 -18 -20 -49 -57 -70
-83 -20 -26 -40 -47 -44 -48 -5 0 -8 75 -8 168 l0 167 154 0 153 0 -76 -84z"/>
</g>
</svg>
